HIERARCHY
ROOT joint_Root
{
	OFFSET 0.0 0.0 0.0
	CHANNELS 6 Xposition Yposition Zposition Zrotation Xrotation Yrotation 
	JOINT Hips
	{
		OFFSET 4.5925 91.4895 -427.239
		CHANNELS 6 Xposition Yposition Zposition Zrotation Xrotation Yrotation 
		JOINT Spine
		{
			OFFSET 15.7357 0.0 0.0
			CHANNELS 6 Xposition Yposition Zposition Zrotation Xrotation Yrotation 
			JOINT Chest
			{
				OFFSET 8.98455 -0.406207 0.0
				CHANNELS 6 Xposition Yposition Zposition Zrotation Xrotation Yrotation 
				JOINT Neck
				{
					OFFSET 16.3773 0.0 0.0
					CHANNELS 6 Xposition Yposition Zposition Zrotation Xrotation Yrotation 
					JOINT Head
					{
						OFFSET 6.45672 0.0 0.0
						CHANNELS 6 Xposition Yposition Zposition Zrotation Xrotation Yrotation 
						End Site
						{
							OFFSET 0.0 0.0 0.0
						}
					}
				}
				JOINT Shoulder_L
				{
					OFFSET 12.9942 -0.242716 4.98039
					CHANNELS 6 Xposition Yposition Zposition Zrotation Xrotation Yrotation 
					JOINT UpperArm_L
					{
						OFFSET 5.34809 0.0 0.0
						CHANNELS 6 Xposition Yposition Zposition Zrotation Xrotation Yrotation 
						JOINT LowerArm_L
						{
							OFFSET 24.3286 1.87007e-05 0.0
							CHANNELS 6 Xposition Yposition Zposition Zrotation Xrotation Yrotation 
							JOINT Hand_L
							{
								OFFSET 22.2916 0.0 0.0
								CHANNELS 6 Xposition Yposition Zposition Zrotation Xrotation Yrotation 
								End Site
								{
									OFFSET 0.0 0.0 0.0
								}
							}
						}
					}
				}
				JOINT Shoulder_R
				{
					OFFSET 12.9945 -0.242716 -4.98039
					CHANNELS 6 Xposition Yposition Zposition Zrotation Xrotation Yrotation 
					JOINT UpperArm_R
					{
						OFFSET -5.34813 0.0 0.0
						CHANNELS 6 Xposition Yposition Zposition Zrotation Xrotation Yrotation 
						JOINT LowerArm_R
						{
							OFFSET -24.3289 0.000322201 0.0
							CHANNELS 6 Xposition Yposition Zposition Zrotation Xrotation Yrotation 
							JOINT Hand_R
							{
								OFFSET -22.2915 -0.000108084 0.0
								CHANNELS 6 Xposition Yposition Zposition Zrotation Xrotation Yrotation 
								End Site
								{
									OFFSET 0.0 0.0 0.0
								}
							}
						}
					}
				}
			}
		}
		JOINT UpperLeg_L
		{
			OFFSET -2.19248 -6.46944 0.0
			CHANNELS 6 Xposition Yposition Zposition Zrotation Xrotation Yrotation 
			JOINT LowerLeg_L
			{
				OFFSET 39.0811 0.0 -1.23785e-05
				CHANNELS 6 Xposition Yposition Zposition Zrotation Xrotation Yrotation 
				JOINT Foot_L
				{
					OFFSET 40.9854 0.0 -1.26872e-05
					CHANNELS 6 Xposition Yposition Zposition Zrotation Xrotation Yrotation 
					JOINT Toes_L
					{
						OFFSET 11.7543 0.0 0.0
						CHANNELS 6 Xposition Yposition Zposition Zrotation Xrotation Yrotation 
						End Site
						{
							OFFSET 0.0 0.0 0.0
						}
					}
				}
			}
		}
		JOINT UpperLeg_R
		{
			OFFSET -2.19251 6.46944 0.0
			CHANNELS 6 Xposition Yposition Zposition Zrotation Xrotation Yrotation 
			JOINT LowerLeg_R
			{
				OFFSET -39.0811 -0.00228153 -0.0401928
				CHANNELS 6 Xposition Yposition Zposition Zrotation Xrotation Yrotation 
				JOINT Foot_R
				{
					OFFSET -40.9854 0.0 0.0
					CHANNELS 6 Xposition Yposition Zposition Zrotation Xrotation Yrotation 
					JOINT Toes_R
					{
						OFFSET -11.7543 0.0 0.0
						CHANNELS 6 Xposition Yposition Zposition Zrotation Xrotation Yrotation 
						End Site
						{
							OFFSET 0.0 0.0 0.0
						}
					}
				}
			}
		}
	}
}
MOTION
Frames:	8
Frame Time:	0.0333333
0.000000 0.000000 0.000000 0.000000 0.000000 -0.000000 112.841000 84.584400 160.782000 -79.069400 28.914800 172.046000 15.735700 0.000005 -0.000001 63.847800 82.378800 -62.062300 8.984550 -0.406207 -0.000000 6.056000 -6.726980 3.926560 16.377300 -0.000001 -0.000001 -2.995490 2.753370 -0.112062 6.456720 -0.000001 -0.000000 -8.205520 8.481000 -2.784550 12.994200 -0.242716 4.980390 -90.460600 1.508000 -73.010400 5.348090 -0.000007 -0.000001 -57.198300 41.289000 -38.388100 24.328600 0.000019 0.000005 -6.245770 0.765927 -96.944000 22.291600 -0.000001 0.000005 11.313500 5.481880 -5.821530 12.994500 -0.242716 -4.980390 88.603300 6.354630 -77.576600 -5.348130 -0.000001 -0.000004 -63.054300 34.112500 19.460300 -24.328900 0.000322 -0.000009 -16.569100 -2.037510 -83.184300 -22.291500 -0.000108 -0.000004 19.024100 5.634060 -13.643700 -2.192480 -6.469440 -0.000000 -174.163000 8.491300 3.253120 39.081100 -0.000007 -0.000012 -0.006529 0.005842 48.196300 40.985400 -0.000006 -0.000013 13.926100 5.516350 -65.928100 11.754300 -0.000000 0.000003 -0.292762 -0.780676 -50.890800 -2.192510 6.469440 -0.000001 -177.950000 14.365500 145.618000 -39.081100 -0.002282 -0.040193 -0.216622 0.208603 46.508000 -40.985400 0.000008 0.000006 -5.321480 8.216930 -63.359200 -11.754300 -0.000006 -0.000006 -0.009237 -0.097844 -20.558800
0.000000 0.000000 0.000000 0.000000 0.000000 -0.000000 116.814000 83.489700 157.443000 -78.951900 28.097500 175.002000 15.735700 0.000005 -0.000001 73.353400 81.992500 -71.186000 8.984550 -0.406207 -0.000000 7.686690 -4.571090 4.639450 16.377300 -0.000001 -0.000001 -1.921730 2.906160 -0.563926 6.456720 -0.000001 -0.000000 -7.266510 8.064010 -3.975670 12.994200 -0.242716 4.980390 -91.048700 3.301570 -72.368800 5.348090 -0.000007 -0.000001 -60.572300 42.651100 -29.081500 24.328600 0.000019 0.000005 -2.660110 -0.580946 -77.507200 22.291600 -0.000001 0.000005 12.318500 5.473590 -5.512440 12.994500 -0.242716 -4.980390 87.661900 10.572700 -77.454800 -5.348130 -0.000001 -0.000004 -56.134200 37.044600 5.140060 -24.328900 0.000322 -0.000009 -17.380900 -1.767470 -84.371400 -22.291500 -0.000108 -0.000004 20.970400 5.641200 -14.224800 -2.192480 -6.469440 -0.000000 -172.937000 7.340340 -2.541180 39.081100 -0.000007 -0.000012 -0.017688 0.008845 63.446700 40.985400 -0.000006 -0.000013 8.107310 6.407840 -51.111400 11.754300 -0.000000 0.000003 -0.171377 -0.595311 -41.897800 -2.192510 6.469440 -0.000001 -178.267000 14.329000 149.343000 -39.081100 -0.002282 -0.040193 -0.335229 0.256470 52.847600 -40.985400 0.000008 0.000006 -4.220380 7.543970 -70.555600 -11.754300 -0.000006 -0.000006 -0.000509 -0.008173 -16.905800
0.000000 0.000000 0.000000 0.000000 0.000000 -0.000000 119.955000 83.069100 154.533000 -79.264500 27.414100 176.729000 15.735700 0.000005 -0.000001 78.922000 81.842600 -76.577800 8.984550 -0.406207 -0.000000 8.322190 -3.109110 4.911220 16.377300 -0.000001 -0.000001 -0.635360 2.836150 -0.210379 6.456720 -0.000001 -0.000000 -5.976520 7.954210 -4.998870 12.994200 -0.242716 4.980390 -91.507400 4.612090 -71.879600 5.348090 -0.000007 -0.000001 -61.705700 42.899000 -17.774800 24.328600 0.000019 0.000005 6.697580 2.608640 -68.812700 22.291600 -0.000001 0.000005 12.724600 5.480110 -5.782110 12.994500 -0.242716 -4.980390 87.132500 12.173000 -76.637500 -5.348130 -0.000001 -0.000004 -50.252000 38.475800 -13.039300 -24.328900 0.000322 -0.000009 -15.374900 -0.458455 -88.336400 -22.291500 -0.000108 -0.000004 20.122100 5.643030 -14.384900 -2.192480 -6.469440 -0.000000 -172.487000 6.021940 -10.615900 39.081100 -0.000007 -0.000012 0.068975 -0.017489 75.766500 40.985400 -0.000006 -0.000013 1.696940 0.633024 -39.382200 11.754300 -0.000000 0.000003 -0.008015 -0.088161 -20.166800 -2.192510 6.469440 -0.000001 -178.553000 14.342500 153.008000 -39.081100 -0.002282 -0.040193 -0.295539 0.205332 55.500500 -40.985400 0.000008 0.000006 -2.845520 6.633720 -75.527200 -11.754300 -0.000006 -0.000006 -0.237672 -0.287160 -16.390900
0.000000 0.000000 0.000000 0.000000 0.000000 -0.000000 122.345000 83.896400 151.365000 -80.327700 28.032700 177.464000 15.735700 0.000005 -0.000001 83.908600 82.044200 -82.020400 8.984550 -0.406207 -0.000000 8.088790 -1.675730 3.891470 16.377300 -0.000001 -0.000001 0.290011 2.469900 0.776542 6.456720 -0.000001 -0.000000 -5.287030 6.843810 -4.922340 12.994200 -0.242716 4.980390 -91.763800 4.854620 -70.003600 5.348090 -0.000007 -0.000001 -60.082100 44.762500 -4.322970 24.328600 0.000019 0.000005 -3.427510 -0.910617 -74.987400 22.291600 -0.000001 0.000005 8.285210 5.523790 -7.533020 12.994500 -0.242716 -4.980390 87.541400 10.897700 -77.205100 -5.348130 -0.000001 -0.000004 -52.365900 37.493400 -27.083100 -24.328900 0.000322 -0.000009 -11.863400 0.825320 -93.928000 -22.291500 -0.000108 -0.000004 19.452400 5.642300 -14.320400 -2.192480 -6.469440 -0.000000 -174.468000 1.958450 -16.405600 39.081100 -0.000007 -0.000012 0.043902 -0.005799 82.465000 40.985400 -0.000006 -0.000013 7.444320 -4.504240 -46.713400 11.754300 -0.000000 0.000003 -0.011609 -0.115299 -21.276600 -2.192510 6.469440 -0.000001 -179.511000 14.042800 157.402000 -39.081100 -0.002282 -0.040193 -0.042521 0.033707 53.620900 -40.985400 0.000008 0.000006 -0.765462 6.225270 -78.010500 -11.754300 -0.000006 -0.000006 -0.211028 -0.254559 -16.411000
0.000000 0.000000 0.000000 0.000000 0.000000 -0.000000 124.320000 85.651400 148.000000 -81.630500 28.611400 177.991000 15.735700 0.000005 -0.000001 94.049800 82.329100 -92.734400 8.984550 -0.406207 -0.000000 7.527480 1.076580 2.557330 16.377300 -0.000001 -0.000001 1.099410 1.301860 1.585010 6.456720 -0.000001 -0.000000 -5.132860 3.820790 -4.100850 12.994200 -0.242716 4.980390 -91.259100 3.124440 -68.033300 5.348090 -0.000007 -0.000001 -59.246100 48.595600 5.627830 24.328600 0.000019 0.000005 -10.749000 -1.707470 -81.084700 22.291600 -0.000001 0.000005 5.993180 5.532630 -7.913420 12.994500 -0.242716 -4.980390 88.340700 7.625030 -77.684700 -5.348130 -0.000001 -0.000004 -58.175100 36.490800 -35.016200 -24.328900 0.000322 -0.000009 -10.909800 2.188300 -101.202000 -22.291500 -0.000108 -0.000004 20.009200 5.633330 -13.595600 -2.192480 -6.469440 -0.000000 -177.082000 -1.346880 -21.342100 39.081100 -0.000007 -0.000012 0.025001 -0.002914 83.334300 40.985400 -0.000006 -0.000013 9.644140 -5.831700 -51.416500 11.754300 -0.000000 0.000003 -0.009773 -0.101941 -20.729900 -2.192510 6.469440 -0.000001 178.877000 14.192500 163.125000 -39.081100 -0.002282 -0.040193 0.012633 -0.008450 47.980300 -40.985400 0.000008 0.000006 -0.330392 6.723800 -77.300600 -11.754300 -0.000006 -0.000006 -0.516163 -0.634031 -17.000700
0.000000 0.000000 0.000000 0.000000 0.000000 -0.000000 126.108000 87.832000 144.323000 -82.838100 27.985100 178.603000 15.735700 0.000005 -0.000001 103.167000 82.388700 -102.422000 8.984550 -0.406207 -0.000000 7.044080 3.450870 1.277450 16.377300 -0.000001 -0.000001 1.792710 0.387358 2.051680 6.456720 -0.000001 -0.000000 -5.015890 1.146660 -3.189680 12.994200 -0.242716 4.980390 -90.142700 0.332058 -66.702300 5.348090 -0.000007 -0.000001 -59.814800 50.244300 13.965900 24.328600 0.000019 0.000005 -5.181600 -0.378551 -85.844200 22.291600 -0.000001 0.000005 4.570870 5.528830 -7.740760 12.994500 -0.242716 -4.980390 89.021100 4.504020 -77.724800 -5.348130 -0.000001 -0.000004 -59.824000 36.927800 -42.020600 -24.328900 0.000322 -0.000009 -11.421200 3.854290 -108.404000 -22.291500 -0.000108 -0.000004 20.664300 5.617560 -12.457000 -2.192480 -6.469440 -0.000000 -179.485000 -2.684910 -24.485000 39.081100 -0.000007 -0.000012 0.012512 -0.002346 79.348500 40.985400 -0.000006 -0.000013 9.300270 -4.167040 -56.675200 11.754300 -0.000000 0.000003 -0.008802 -0.094470 -20.424500 -2.192510 6.469440 -0.000001 177.025000 14.967300 170.040000 -39.081100 -0.002282 -0.040193 -0.018851 0.026385 39.987000 -40.985400 0.000008 0.000006 -0.891707 7.271210 -73.250700 -11.754300 -0.000006 -0.000006 -1.451130 -1.728540 -19.109600
0.000000 0.000000 0.000000 0.000000 0.000000 -0.000000 127.682000 89.837100 140.887000 -84.179100 26.935200 177.930000 15.735700 0.000005 -0.000001 110.114000 82.652000 -110.111000 8.984550 -0.406207 -0.000000 6.051620 5.040130 -0.259473 16.377300 -0.000001 -0.000001 1.947380 -0.322045 2.166130 6.456720 -0.000001 -0.000000 -5.247960 -0.667467 -2.286700 12.994200 -0.242716 4.980390 -89.019900 -2.245910 -66.415700 5.348090 -0.000007 -0.000001 -60.978600 49.644700 22.192700 24.328600 0.000019 0.000005 -8.090200 -0.041267 -89.701100 22.291600 -0.000001 0.000005 3.676590 5.520770 -7.395230 12.994500 -0.242716 -4.980390 89.526400 2.248410 -78.103300 -5.348130 -0.000001 -0.000004 -56.717100 37.338000 -49.498200 -24.328900 0.000322 -0.000009 -10.099100 4.766230 -115.016000 -22.291500 -0.000108 -0.000004 20.133500 5.597620 -11.196000 -2.192480 -6.469440 -0.000000 178.223000 -3.531490 -27.813100 39.081100 -0.000007 -0.000012 0.005102 -0.001690 71.608700 40.985400 -0.000006 -0.000013 8.823150 -2.748790 -60.715700 11.754300 -0.000000 0.000003 -0.008090 -0.088774 -20.191800 -2.192510 6.469440 -0.000001 175.179000 17.296300 174.426000 -39.081100 -0.002282 -0.040193 -0.024224 0.041769 33.377700 -40.985400 0.000008 0.000006 -0.906819 8.952760 -67.457300 -11.754300 -0.000006 -0.000006 -0.183898 -0.294966 -21.431400
0.000000 0.000000 0.000000 0.000000 0.000000 -0.000000 129.122000 91.272300 137.763000 -84.734900 25.513500 176.577000 15.735700 0.000005 -0.000001 115.672000 82.842600 -116.171000 8.984550 -0.406207 -0.000000 5.187030 6.199680 -1.278510 16.377300 -0.000001 -0.000001 1.430160 -0.995981 2.145510 6.456720 -0.000001 -0.000000 -5.644850 -2.139420 -1.846330 12.994200 -0.242716 4.980390 -88.040200 -4.625400 -67.005800 5.348090 -0.000007 -0.000001 -62.370300 46.903700 28.807600 24.328600 0.000019 0.000005 -10.069600 0.353643 -91.990700 22.291600 -0.000001 0.000005 3.941960 5.504690 -6.724430 12.994500 -0.242716 -4.980390 89.949800 0.251412 -78.726200 -5.348130 -0.000001 -0.000004 -51.808800 37.188400 -55.606700 -24.328900 0.000322 -0.000009 -7.976300 4.793140 -120.812000 -22.291500 -0.000108 -0.000004 18.387100 5.572670 -9.815750 -2.192480 -6.469440 -0.000000 176.844000 -4.515350 -30.437400 39.081100 -0.000007 -0.000012 0.000665 -0.000365 60.912200 40.985400 -0.000006 -0.000013 8.015340 -3.152210 -63.853400 11.754300 -0.000000 0.000003 -0.006986 -0.079549 -19.815200 -2.192510 6.469440 -0.000001 173.955000 21.143200 177.320000 -39.081100 -0.002282 -0.040193 -0.008781 0.022017 28.762900 -40.985400 0.000008 0.000006 -0.477932 11.722600 -62.062500 -11.754300 -0.000006 -0.000006 -0.029206 -0.213802 -25.330200
